<?xml version="1.0" encoding="iso-8859-1"?>
<!-- Generator: Adobe Illustrator 19.0.0, SVG Export Plug-In . SVG Version: 6.00 Build 0)  -->
<svg version="1.1" id="Layer_1" xmlns="http://www.w3.org/2000/svg" xmlns:xlink="http://www.w3.org/1999/xlink" x="0px" y="0px"
	 viewBox="0 0 189.849 189.849" style="enable-background:new 0 0 189.849 189.849;" xml:space="preserve">
<g>
	<g>
		<g>
			<path d="M31.088,56.215c0.348,0.012,0.696,0.017,1.045,0.017c7.396,0,14.409-2.758,19.845-7.83
				c5.694-5.309,8.981-12.517,9.252-20.296c0.272-7.781-2.5-15.202-7.811-20.895c-2.8-3-6.115-5.329-9.858-6.928
				c-1.295-0.547-2.796-0.291-3.83,0.672s-1.4,2.443-0.941,3.777c2.855,8.23,0.585,17.385-5.784,23.322
				C26.64,33.995,17.35,35.623,9.334,32.2c-1.299-0.548-2.796-0.292-3.834,0.674c-1.031,0.963-1.396,2.443-0.933,3.777
				c1.337,3.85,3.43,7.32,6.223,10.314C16.101,52.658,23.309,55.943,31.088,56.215z M37.868,33.27
				c6.254-5.829,9.524-14,9.256-22.278c0.369,0.347,0.731,0.707,1.079,1.083c4.012,4.301,6.104,9.903,5.899,15.78
				c-0.205,5.877-2.685,11.321-6.989,15.33c-4.297,4.012-9.91,6.129-15.774,5.901c-5.878-0.205-11.321-2.686-15.332-6.987
				c-0.348-0.374-0.686-0.759-1.003-1.152C23.236,41.8,31.617,39.1,37.868,33.27z"/>
			<path d="M57.027,57.914c-15.729,0-28.526,13.596-28.526,30.309c0,16.711,12.797,30.309,28.526,30.309h78.448
				c0.292,0,0.582-0.035,0.864-0.104c17.564-1.431,31.229-16.917,31.229-35.554c0-18.411-13.553-33.799-30.703-35.502
				c-5.436-14.911-20.305-25.117-37.047-25.117c-21.089,0-38.34,15.964-39.193,35.897C59.437,57.994,58.236,57.914,57.027,57.914z
				 M66.513,65.417c0.937-0.747,1.438-1.913,1.33-3.108c-0.077-0.86-0.118-1.731-0.118-2.612c0-16.713,14.396-30.309,32.092-30.309
				c14.472,0,27.214,9.204,30.982,22.38c0.432,1.508,1.797,2.556,3.364,2.586c14.486,0.266,26.274,13.06,26.274,28.521
				c0,15.109-11.066,27.618-25.191,28.481c-0.132,0.007-0.258,0.024-0.387,0.045H57.027c-11.798,0-21.395-10.398-21.395-23.178
				c0-12.78,9.597-23.178,21.395-23.178c2.1,0,4.172,0.327,6.16,0.975C64.336,66.392,65.583,66.165,66.513,65.417z"/>
			<path d="M89.203,182.717H14.238c-1.971,0-3.566,1.595-3.566,3.566c0,1.971,1.595,3.566,3.566,3.566h74.965
				c1.971,0,3.566-1.595,3.566-3.566C92.769,184.312,91.174,182.717,89.203,182.717z"/>
			<path d="M181.914,182.717h-74.965c-1.971,0-3.566,1.595-3.566,3.566c0,1.971,1.595,3.566,3.566,3.566h74.965
				c1.971,0,3.566-1.595,3.566-3.566C185.48,184.312,183.885,182.717,181.914,182.717z"/>
			<path d="M14.238,154.191h103.471c1.971,0,3.566-1.595,3.566-3.566s-1.595-3.566-3.566-3.566H14.238
				c-1.971,0-3.566,1.595-3.566,3.566S12.267,154.191,14.238,154.191z"/>
			<path d="M135.475,147.059c-1.971,0-3.566,1.595-3.566,3.566s1.595,3.566,3.566,3.566h46.418c1.971,0,3.566-1.595,3.566-3.566
				s-1.595-3.566-3.566-3.566H135.475z"/>
			<path d="M14.238,172.02h165.848c1.971,0,3.566-1.595,3.566-3.566c0-1.971-1.595-3.566-3.566-3.566H14.238
				c-1.971,0-3.566,1.595-3.566,3.566C10.672,170.425,12.267,172.02,14.238,172.02z"/>
			<path d="M10.672,132.796c0,1.971,1.595,3.566,3.566,3.566h165.848c1.971,0,3.566-1.595,3.566-3.566
				c0-1.971-1.595-3.566-3.566-3.566H14.238C12.267,129.23,10.672,130.825,10.672,132.796z"/>
		</g>
	</g>
</g>
<g>
</g>
<g>
</g>
<g>
</g>
<g>
</g>
<g>
</g>
<g>
</g>
<g>
</g>
<g>
</g>
<g>
</g>
<g>
</g>
<g>
</g>
<g>
</g>
<g>
</g>
<g>
</g>
<g>
</g>
</svg>
